# xmcd CD database file
#
# Track frame offsets:
#	150
#	40984
#	56626
#	73061
#	93500
#	109006
#	124405
#	145591
#	161935
#	179688
#	201394
#	233761
#	254993
#	276209
#
# Disc length: 4055 seconds
#
# Revision: 0
# Processed by: cddbd v1.5.2PL0 Copyright (c) Steve Scherf et al.
# Submitted via: CDex 1.79
#
DISCID=e20fd50e
DTITLE=Helene Fischer - Die Arena-Tournee - CD2
DYEAR=2018
DGENRE=Schlager
TTITLE0=Hit Medley - Live 2018
TTITLE1=Lieb mich dann - Live 2018
TTITLE2=Du hast mich stark gemacht - Live 2018
TTITLE3=Mit jedem Herzschlag - Live 2018
TTITLE4=Herzbeben - Live 2018
TTITLE5=Dein Blick - Live 2018
TTITLE6=Mit dem Wind - Live 2018
TTITLE7=Wir zwei - Live 2018
TTITLE8=Fehlerfrei - Live 2018
TTITLE9=Wir brechen das Schweigen - Live 2018
TTITLE10=Achterbahn - Live 2018
TTITLE11=Flieger - Live 2018
TTITLE12=Unser Tag - Live 2018
TTITLE13=Atemlos durch die Nacht - Live 2018
EXTD=YEAR: 2018
EXTT0=
EXTT1=
EXTT2=
EXTT3=
EXTT4=
EXTT5=
EXTT6=
EXTT7=
EXTT8=
EXTT9=
EXTT10=
EXTT11=
EXTT12=
EXTT13=
PLAYORDER=
